# xmcd
#
# Track frame offsets:
#	187
#	10090
#	22862
#	34020
#	44362
#	56565
#	72135
#	87587
#	101595
#	115072
#	130387
#	141980
#	154037
#	169170
#	181650
#	194440
#	206147
#	215572
#	236062
#	247297
#	264860
#	275532
#	291592
#	302772
#
# Disc length: 4252 seconds
#
# Revision: 1
# Processed by: cddbd v1.5.2PL0 Copyright (c) Steve Scherf et al.
# Submitted via: audiograbber 1.83.01
#
DISCID=66109a18
DTITLE=Buddy Williams - The Bush Balladeer
DYEAR=1900
DGENRE=Country
TTITLE0=Wingle The Railway Cop
TTITLE1=Over The Hilltop and The Hollow 
TTITLE2=Wild River
TTITLE3=The Overlander Trail
TTITLE4=The Big Banana Land
TTITLE5=Cattle Train
TTITLE6=Les Dingo
TTITLE7=The Sound Of The Bush At Night
TTITLE8=Sugar Cane Country
TTITLE9=The Old Fashioned Homestead
TTITLE10=That" Me Game
TTITLE11=Stock Mates
TTITLE12=When The Brumbies Come To Water
TTITLE13=Chilly Chilly WindsThe Conda
TTITLE14=The Condamine Bell
TTITLE15=The Tall End Of A Spree
TTITLE16=He'll Shearing In a Week
TTITLE17=Camooweal
TTITLE18=Back To The Rolling Plains
TTITLE19=Dingo
TTITLE20=Fading Fast Away
TTITLE21=By A Fire Of Gidgee Coals
TTITLE22=Where The White Faced Cattle Roam 
TTITLE23=The Happiest Of My Life
EXTD=
EXTT0=
EXTT1=
EXTT2=
EXTT3=
EXTT4=
EXTT5=
EXTT6=
EXTT7=
EXTT8=
EXTT9=
EXTT10=
EXTT11=
EXTT12=
EXTT13=
EXTT14=
EXTT15=
EXTT16=
EXTT17=
EXTT18=
EXTT19=
EXTT20=
EXTT21=
EXTT22=
EXTT23=
PLAYORDER=
